<!DOCTYPE svg PUBLIC "-//W3C//DTD SVG 1.1//EN" "http://www.w3.org/Graphics/SVG/1.1/DTD/svg11.dtd">
<!-- Uploaded to: SVG Repo, www.svgrepo.com, Transformed by: SVG Repo Mixer Tools -->
<svg height="800px" width="800px" version="1.1" id="Layer_1" xmlns="http://www.w3.org/2000/svg" xmlns:xlink="http://www.w3.org/1999/xlink" viewBox="0 0 512 512" xml:space="preserve" fill="#000000">
<g id="SVGRepo_bgCarrier" stroke-width="0"/>
<g id="SVGRepo_tracerCarrier" stroke-linecap="round" stroke-linejoin="round"/>
<g id="SVGRepo_iconCarrier"> <path style="fill:#578CAD;" d="M316.87,280.153c-0.77-0.814-1.957-1.085-3.004-0.688c-5.535,2.095-11.35,3.157-17.287,3.157 c-26.948,0-48.872-21.924-48.872-48.87c0-14.238,6.205-27.743,17.025-37.051c0.85-0.731,1.179-1.901,0.831-2.968 c-0.346-1.066-1.299-1.821-2.416-1.914c-1.987-0.165-3.782-0.246-5.487-0.246c-35.998,0-65.284,29.286-65.284,65.284 s29.288,65.284,65.284,65.284c25.842,0,49.288-15.289,59.735-38.95C317.85,282.165,317.643,280.968,316.87,280.153z"/> <path style="opacity:0.1;fill:#231F20;enable-background:new ;" d="M272.873,313.793c-35.997,0-65.284-29.286-65.284-65.284 c0-21.537,10.488-40.664,26.621-52.562c-24.441,9.444-41.832,33.178-41.832,60.91c0,35.998,29.288,65.284,65.284,65.284 c14.209,0,27.689-4.631,38.687-12.727C288.987,312.258,281.051,313.793,272.873,313.793z"/> <path style="fill:#90C8EC;" d="M256,0C114.842,0,0,114.842,0,256s114.842,256,256,256s256-114.842,256-256S397.158,0,256,0z M447.797,349.042c-0.599,1.23-1.212,2.452-1.833,3.669c-0.164,0.317-0.329,0.631-0.493,0.947c-0.555,1.074-1.12,2.144-1.694,3.207 c-0.215,0.398-0.431,0.798-0.648,1.195c-0.687,1.254-1.382,2.502-2.095,3.741c-0.052,0.091-0.103,0.184-0.156,0.276 c-0.759,1.316-1.534,2.619-2.32,3.918c-0.229,0.38-0.461,0.758-0.693,1.135c-0.62,1.01-1.247,2.015-1.882,3.013 c-0.207,0.326-0.412,0.653-0.622,0.978c-0.816,1.267-1.644,2.523-2.485,3.771c-0.189,0.282-0.383,0.56-0.574,0.84 c-0.685,1.003-1.376,2-2.076,2.992c-0.26,0.37-0.524,0.74-0.787,1.109c-0.8,1.116-1.607,2.226-2.429,3.326 c-0.094,0.126-0.185,0.254-0.279,0.381c-0.905,1.208-1.825,2.403-2.756,3.592c-0.269,0.345-0.541,0.687-0.813,1.03 c-0.729,0.919-1.465,1.833-2.208,2.74c-0.253,0.307-0.502,0.617-0.756,0.923c-0.957,1.156-1.928,2.304-2.91,3.439 c-0.206,0.239-0.417,0.474-0.624,0.713c-0.807,0.925-1.621,1.842-2.444,2.754c-0.304,0.338-0.61,0.676-0.917,1.012 c-0.897,0.981-1.802,1.955-2.717,2.918c-0.137,0.145-0.272,0.293-0.411,0.437c-1.04,1.09-2.093,2.164-3.154,3.231 c-0.303,0.305-0.61,0.607-0.915,0.91c-0.829,0.823-1.665,1.639-2.508,2.449c-0.295,0.283-0.587,0.568-0.883,0.848 c-1.087,1.033-2.186,2.057-3.295,3.068c-0.219,0.199-0.441,0.394-0.661,0.593c-0.924,0.835-1.857,1.662-2.795,2.481 c-0.343,0.298-0.685,0.595-1.028,0.892c-0.985,0.848-1.977,1.687-2.977,2.518c-0.18,0.15-0.358,0.303-0.539,0.452 c-1.162,0.958-2.337,1.901-3.519,2.835c-0.331,0.262-0.664,0.52-0.997,0.779c-0.923,0.719-1.851,1.432-2.786,2.137 c-0.333,0.252-0.664,0.504-0.997,0.752c-1.208,0.899-2.423,1.789-3.65,2.664c-0.215,0.154-0.435,0.304-0.651,0.457 c-1.042,0.737-2.09,1.464-3.145,2.182c-0.375,0.256-0.752,0.511-1.13,0.765c-1.06,0.711-2.126,1.414-3.198,2.107 c-0.224,0.144-0.444,0.292-0.669,0.435c-1.272,0.816-2.556,1.615-3.846,2.403c-0.352,0.215-0.708,0.426-1.061,0.64 c-1.01,0.609-2.025,1.21-3.044,1.803c-0.367,0.213-0.731,0.426-1.1,0.637c-1.316,0.754-2.637,1.496-3.969,2.223 c-0.201,0.11-0.404,0.215-0.607,0.324c-1.159,0.627-2.326,1.242-3.497,1.848c-0.401,0.207-0.803,0.413-1.204,0.618 c-1.132,0.575-2.27,1.142-3.413,1.697c-0.256,0.126-0.513,0.255-0.77,0.378c-1.372,0.661-2.755,1.306-4.144,1.938 c-0.366,0.166-0.733,0.328-1.101,0.493c-1.09,0.489-2.185,0.968-3.285,1.439c-0.395,0.169-0.789,0.339-1.185,0.506 c-1.414,0.595-2.832,1.179-4.259,1.743c-0.175,0.07-0.352,0.135-0.528,0.204c-1.273,0.5-2.556,0.986-3.841,1.464 c-0.425,0.157-0.85,0.313-1.277,0.466c-1.19,0.432-2.384,0.854-3.584,1.266c-0.294,0.1-0.583,0.204-0.877,0.303 c-1.459,0.493-2.927,0.969-4.401,1.431c-0.374,0.117-0.75,0.23-1.124,0.345c-1.166,0.358-2.336,0.708-3.511,1.046 c-0.416,0.12-0.833,0.242-1.25,0.36c-1.5,0.423-3.004,0.835-4.518,1.225c-0.13,0.033-0.262,0.065-0.394,0.098 c-1.394,0.357-2.795,0.698-4.2,1.027c-0.441,0.103-0.885,0.205-1.327,0.306c-1.241,0.283-2.485,0.554-3.736,0.815 c-0.324,0.068-0.646,0.139-0.969,0.205c-1.535,0.313-3.076,0.608-4.621,0.888c-0.377,0.068-0.757,0.131-1.133,0.197 c-1.229,0.215-2.462,0.42-3.699,0.614c-0.441,0.069-0.882,0.139-1.323,0.206c-1.572,0.237-3.148,0.462-4.73,0.664 c-0.071,0.009-0.144,0.017-0.215,0.026c-1.517,0.191-3.041,0.364-4.568,0.524c-0.454,0.047-0.908,0.092-1.365,0.136 c-1.281,0.126-2.567,0.24-3.853,0.344c-0.354,0.028-0.709,0.06-1.063,0.087c-1.597,0.12-3.198,0.221-4.804,0.305 c-0.374,0.02-0.75,0.033-1.124,0.051c-1.287,0.06-2.578,0.11-3.87,0.147c-0.46,0.013-0.918,0.027-1.379,0.038 c-1.633,0.038-3.268,0.062-4.907,0.062c-1.641,0-3.276-0.024-4.907-0.062c-0.461-0.01-0.919-0.023-1.379-0.038 c-1.293-0.038-2.583-0.087-3.871-0.147c-0.374-0.018-0.75-0.031-1.124-0.051c-1.606-0.083-3.208-0.186-4.804-0.305 c-0.355-0.027-0.709-0.059-1.064-0.087c-1.288-0.103-2.572-0.217-3.853-0.344c-0.455-0.045-0.909-0.089-1.365-0.136 c-1.527-0.16-3.051-0.332-4.568-0.524c-0.071-0.009-0.144-0.017-0.215-0.026c-1.583-0.203-3.159-0.427-4.73-0.664 c-0.442-0.067-0.883-0.136-1.323-0.206c-1.237-0.195-2.47-0.4-3.7-0.614c-0.377-0.067-0.757-0.129-1.133-0.197 c-1.547-0.279-3.088-0.575-4.622-0.888c-0.324-0.067-0.646-0.138-0.969-0.205c-1.25-0.26-2.494-0.532-3.735-0.815 c-0.443-0.101-0.886-0.203-1.328-0.306c-1.405-0.329-2.806-0.67-4.2-1.027c-0.131-0.033-0.263-0.065-0.394-0.098 c-1.513-0.391-3.017-0.803-4.517-1.225c-0.419-0.118-0.834-0.239-1.251-0.36c-1.174-0.339-2.344-0.688-3.509-1.046 c-0.375-0.116-0.75-0.228-1.124-0.345c-1.474-0.462-2.942-0.938-4.401-1.431c-0.294-0.099-0.584-0.204-0.877-0.303 c-1.2-0.412-2.394-0.834-3.584-1.266c-0.426-0.155-0.851-0.309-1.276-0.466c-1.287-0.476-2.568-0.963-3.841-1.464 c-0.175-0.069-0.352-0.135-0.526-0.204c-1.428-0.564-2.846-1.148-4.259-1.743c-0.396-0.167-0.79-0.337-1.184-0.506 c-1.101-0.471-2.196-0.951-3.286-1.439c-0.367-0.165-0.735-0.327-1.101-0.493c-1.389-0.632-2.77-1.278-4.144-1.938 c-0.258-0.124-0.514-0.253-0.771-0.378c-1.143-0.555-2.281-1.122-3.411-1.697c-0.402-0.205-0.804-0.411-1.205-0.618 c-1.172-0.605-2.339-1.221-3.498-1.848c-0.201-0.109-0.405-0.215-0.607-0.324c-1.332-0.726-2.655-1.468-3.97-2.223 c-0.368-0.21-0.732-0.424-1.099-0.637c-1.021-0.593-2.036-1.193-3.045-1.803c-0.354-0.213-0.709-0.424-1.061-0.64 c-1.291-0.788-2.573-1.588-3.846-2.403c-0.224-0.144-0.445-0.292-0.669-0.435c-1.072-0.692-2.138-1.395-3.197-2.107 c-0.377-0.254-0.755-0.509-1.13-0.765c-1.055-0.718-2.105-1.445-3.145-2.182c-0.216-0.154-0.435-0.303-0.652-0.457 c-1.227-0.875-2.442-1.763-3.649-2.664c-0.334-0.249-0.666-0.502-0.998-0.752c-0.935-0.705-1.863-1.417-2.786-2.137 c-0.333-0.259-0.667-0.518-0.997-0.779c-1.183-0.934-2.357-1.877-3.519-2.835c-0.181-0.149-0.358-0.302-0.539-0.452 c-1.001-0.83-1.992-1.67-2.977-2.518c-0.344-0.296-0.687-0.593-1.028-0.892c-0.938-0.819-1.871-1.646-2.795-2.481 c-0.219-0.198-0.442-0.394-0.661-0.593c-1.11-1.011-2.206-2.035-3.295-3.068c-0.296-0.28-0.588-0.565-0.883-0.848 c-0.843-0.809-1.678-1.626-2.508-2.449c-0.305-0.303-0.612-0.606-0.915-0.91c-1.062-1.066-2.116-2.142-3.154-3.231 c-0.138-0.145-0.274-0.292-0.411-0.437c-0.915-0.964-1.82-1.938-2.717-2.918c-0.307-0.336-0.613-0.673-0.918-1.012 c-0.823-0.91-1.637-1.829-2.444-2.754c-0.208-0.238-0.42-0.474-0.626-0.713c-0.982-1.136-1.951-2.283-2.909-3.439 c-0.254-0.306-0.504-0.616-0.756-0.923c-0.744-0.907-1.479-1.821-2.208-2.74c-0.272-0.343-0.544-0.686-0.814-1.03 c-0.929-1.188-1.85-2.383-2.755-3.592c-0.095-0.126-0.186-0.255-0.28-0.381c-0.82-1.1-1.628-2.209-2.428-3.326 c-0.264-0.368-0.525-0.739-0.787-1.109c-0.7-0.992-1.391-1.988-2.076-2.992c-0.191-0.281-0.385-0.559-0.575-0.84 c-0.841-1.248-1.668-2.505-2.484-3.771c-0.209-0.325-0.414-0.652-0.621-0.978c-0.636-0.998-1.263-2.002-1.882-3.013 c-0.232-0.378-0.464-0.756-0.695-1.135c-0.786-1.298-1.56-2.601-2.318-3.918c-0.052-0.092-0.104-0.185-0.156-0.276 c-0.711-1.239-1.407-2.487-2.094-3.741c-0.217-0.397-0.433-0.797-0.649-1.195c-0.573-1.063-1.139-2.133-1.694-3.207 c-0.164-0.316-0.331-0.63-0.492-0.947c-0.621-1.217-1.235-2.439-1.834-3.669l-0.041-0.099c-3.889-7.994-7.296-16.263-10.177-24.773 l-0.01-0.026c-0.501-1.48-0.982-2.97-1.45-4.464c-0.148-0.47-0.287-0.944-0.432-1.416c-0.327-1.07-0.648-2.14-0.958-3.217 c-0.164-0.568-0.324-1.136-0.483-1.706c-0.284-1.018-0.561-2.04-0.83-3.063c-0.148-0.561-0.297-1.122-0.441-1.686 c-0.298-1.169-0.582-2.342-0.86-3.518c-0.095-0.401-0.196-0.8-0.288-1.202c-0.36-1.559-0.701-3.125-1.025-4.698 c-0.09-0.435-0.171-0.873-0.258-1.308c-0.233-1.164-0.46-2.332-0.672-3.503c-0.105-0.575-0.205-1.153-0.305-1.73 c-0.186-1.064-0.363-2.13-0.531-3.2c-0.092-0.58-0.184-1.16-0.27-1.742c-0.175-1.168-0.337-2.339-0.493-3.513 c-0.061-0.461-0.128-0.92-0.186-1.382c-0.206-1.631-0.394-3.267-0.562-4.909c-0.028-0.272-0.049-0.544-0.076-0.815 c-0.136-1.379-0.259-2.761-0.37-4.148c-0.042-0.538-0.078-1.077-0.116-1.616c-0.082-1.146-0.156-2.294-0.219-3.445 c-0.032-0.574-0.062-1.149-0.089-1.724c-0.056-1.191-0.1-2.384-0.137-3.58c-0.016-0.495-0.035-0.99-0.046-1.485 c-0.04-1.687-0.066-3.377-0.066-5.073c0-60.614,25.427-115.4,66.175-154.253c4.94-4.709,10.103-9.185,15.475-13.408 C160.715,59.831,206.407,42.809,256,42.809s95.285,17.021,131.542,45.529c5.372,4.223,10.536,8.698,15.475,13.408 c40.747,38.853,66.175,93.64,66.175,154.253c0,1.696-0.025,3.386-0.066,5.073c-0.012,0.496-0.03,0.991-0.046,1.485 c-0.036,1.195-0.08,2.389-0.136,3.58c-0.028,0.575-0.058,1.151-0.089,1.724c-0.065,1.151-0.137,2.298-0.219,3.445 c-0.038,0.539-0.073,1.079-0.117,1.616c-0.11,1.387-0.234,2.769-0.37,4.148c-0.027,0.272-0.048,0.544-0.076,0.815 c-0.168,1.642-0.357,3.278-0.562,4.909c-0.059,0.462-0.125,0.922-0.187,1.382c-0.155,1.174-0.317,2.345-0.492,3.513 c-0.087,0.582-0.179,1.162-0.27,1.742c-0.169,1.07-0.346,2.136-0.532,3.2c-0.101,0.577-0.2,1.154-0.305,1.73 c-0.213,1.171-0.44,2.339-0.672,3.503c-0.087,0.435-0.169,0.873-0.258,1.308c-0.324,1.573-0.667,3.139-1.026,4.698 c-0.091,0.402-0.194,0.801-0.287,1.202c-0.278,1.176-0.563,2.35-0.86,3.518c-0.144,0.563-0.294,1.124-0.441,1.686 c-0.269,1.024-0.545,2.045-0.83,3.063c-0.159,0.57-0.319,1.139-0.483,1.706c-0.311,1.076-0.632,2.147-0.958,3.217 c-0.146,0.472-0.285,0.946-0.433,1.416c-0.469,1.495-0.951,2.984-1.45,4.464l-0.011,0.026c-2.879,8.51-6.286,16.779-10.177,24.773 L447.797,349.042z"/> <g> <path style="fill:#578CAD;" d="M145.552,265.204H94.18c-4.61,0-8.348-3.738-8.348-8.348c0-4.61,3.738-8.348,8.348-8.348h51.371 c4.61,0,8.348,3.738,8.348,8.348C153.899,261.466,150.162,265.204,145.552,265.204z"/> <path style="fill:#578CAD;" d="M417.82,265.204h-51.373c-4.61,0-8.348-3.738-8.348-8.348c0-4.61,3.738-8.348,8.348-8.348h51.371 c4.61,0,8.348,3.738,8.348,8.348C426.168,261.466,422.429,265.204,417.82,265.204z"/> <path style="fill:#578CAD;" d="M141.577,379.628c-2.136,0-4.273-0.815-5.902-2.445c-3.26-3.26-3.26-8.545,0-11.805L172,329.052 c3.26-3.26,8.546-3.26,11.806,0c3.26,3.26,3.26,8.546,0,11.805l-36.325,36.325C145.85,378.813,143.713,379.628,141.577,379.628z"/> <path style="fill:#578CAD;" d="M334.099,187.106c-2.137,0-4.273-0.815-5.902-2.444c-3.261-3.26-3.261-8.546,0-11.806l36.324-36.324 c3.259-3.26,8.546-3.26,11.804,0c3.261,3.26,3.261,8.546,0,11.805L340,184.661C338.372,186.29,336.236,187.106,334.099,187.106z"/> <path style="fill:#578CAD;" d="M256,427.024c-4.61,0-8.348-3.738-8.348-8.348v-51.371c0-4.61,3.738-8.348,8.348-8.348 s8.348,3.738,8.348,8.348v51.371C264.348,423.286,260.61,427.024,256,427.024z"/> <path style="fill:#578CAD;" d="M256,154.756c-4.61,0-8.348-3.738-8.348-8.348V95.037c0-4.61,3.738-8.348,8.348-8.348 s8.348,3.738,8.348,8.348v51.371C264.348,151.019,260.61,154.756,256,154.756z"/> <path style="fill:#578CAD;" d="M370.424,379.628c-2.137,0-4.273-0.815-5.904-2.445l-36.324-36.325 c-3.261-3.26-3.261-8.546,0-11.805c3.26-3.26,8.545-3.26,11.806,0l36.325,36.325c3.26,3.26,3.26,8.546,0,11.805 C374.697,378.813,372.56,379.628,370.424,379.628z"/> <path style="fill:#578CAD;" d="M177.901,187.106c-2.136,0-4.273-0.815-5.902-2.444l-36.325-36.325c-3.26-3.26-3.26-8.546,0-11.805 c3.26-3.26,8.546-3.26,11.805,0l36.325,36.324c3.26,3.26,3.26,8.545,0,11.806C182.174,186.29,180.038,187.106,177.901,187.106z"/> </g> </g>
</svg>